
<svg version="1.0" xmlns="http://www.w3.org/2000/svg"
 width="275.000000pt" height="183.000000pt" viewBox="0 0 275.000000 183.000000"
 preserveAspectRatio="xMidYMid meet">

<g transform="translate(0.000000,183.000000) scale(0.100000,-0.100000)"
fill="#000000" stroke="none">
<path d="M1340 1796 c-3 -2 -25 -6 -50 -9 -56 -7 -82 -16 -74 -28 3 -5 -8 -27
-25 -48 -38 -48 -54 -124 -49 -234 3 -63 2 -76 -8 -63 -10 14 -12 10 -12 -22
0 -21 3 -44 9 -52 7 -12 9 -12 9 3 0 10 4 15 10 12 6 -4 5 -16 -4 -34 -13 -24
-13 -30 -1 -42 17 -17 34 -89 42 -177 4 -49 2 -67 -10 -80 -14 -16 -14 -21 3
-60 18 -40 76 -112 91 -112 7 0 4 37 -6 61 -7 19 20 46 30 29 8 -12 62 -14 69
-1 3 5 21 12 39 15 29 5 64 42 69 73 3 13 49 46 55 39 4 -3 2 -11 -5 -18 -8
-8 -7 -14 2 -24 9 -9 12 -29 9 -61 l-6 -48 20 25 c36 45 44 67 28 74 -8 3 -15
1 -15 -5 0 -6 -4 -7 -10 -4 -16 10 -12 103 6 138 19 36 35 145 22 153 -4 3 -8
2 -9 -3 -5 -57 -40 -113 -70 -113 -11 0 -18 4 -15 9 7 10 -18 34 -27 25 -8 -8
-67 6 -67 16 0 4 8 6 18 4 13 -4 17 1 17 21 0 24 -3 26 -29 21 -16 -3 -35 -1
-42 5 -15 12 -34 4 -34 -16 0 -7 -17 -22 -38 -33 -45 -23 -62 -12 -62 43 0 19
-4 35 -8 35 -4 0 -9 8 -10 18 -1 9 -3 26 -4 37 -2 15 2 19 17 17 51 -6 78 -9
58 -5 -37 7 -26 22 12 19 46 -4 51 -11 38 -46 -6 -17 -10 -30 -7 -30 8 0 34
60 34 79 0 27 -37 51 -80 51 -58 1 -68 15 -66 100 l1 75 125 0 c69 0 130 4
136 8 20 12 75 -5 90 -28 16 -25 22 -160 9 -208 -6 -22 -4 -26 8 -21 24 9 32
32 46 134 7 51 6 70 -5 88 -8 12 -18 22 -23 22 -4 0 -8 14 -8 30 0 42 -40 81
-116 112 -66 27 -120 42 -127 34z m229 -140 c0 -6 -5 -1 -11 12 -6 12 -15 22
-20 22 -4 0 -8 6 -8 13 1 6 10 1 20 -12 11 -13 20 -28 19 -35z m-194 -435 c3
-6 -10 -7 -32 -4 -50 8 -55 13 -10 13 20 0 38 -4 42 -9z m85 -37 c16 -16 4
-36 -35 -62 -28 -18 -35 -19 -35 -7 0 8 6 15 13 15 7 0 4 7 -7 15 -19 14 -19
15 -1 15 27 0 14 8 -24 15 -19 3 -39 9 -45 12 -6 4 -3 -3 8 -15 16 -19 17 -22
3 -28 -21 -8 -53 11 -59 34 -5 17 2 18 83 18 49 -1 93 -6 99 -12z m-87 -82
c-4 -10 -9 -10 -22 0 -9 7 -17 13 -19 14 -2 1 8 1 21 0 15 0 23 -6 20 -14z
m-118 -142 c3 -5 -1 -10 -9 -10 -9 0 -16 5 -16 10 0 6 4 10 9 10 6 0 13 -4 16
-10z"/>
<path d="M1445 1443 c-11 -3 -26 -10 -32 -15 -16 -13 -17 -58 -2 -58 5 0 7 5
4 10 -6 9 17 15 40 10 46 -10 62 -10 82 1 32 17 29 28 -12 45 -35 14 -45 15
-80 7z"/>
<path d="M1590 1360 c0 -5 5 -10 11 -10 5 0 7 5 4 10 -3 6 -8 10 -11 10 -2 0
-4 -4 -4 -10z"/>
<path d="M1165 890 c-10 -11 -15 -26 -11 -36 8 -21 21 -9 30 29 8 32 5 33 -19
7z"/>
<path d="M1505 872 c6 -4 21 -22 34 -39 12 -18 28 -33 36 -33 7 0 -4 18 -24
40 -20 22 -41 40 -46 40 -6 0 -6 -3 0 -8z"/>
<path d="M1180 844 c0 -8 32 -33 43 -34 4 0 -2 9 -13 20 -21 21 -30 25 -30 14z"/>
<path d="M1170 791 c0 -7 58 -31 75 -31 5 0 4 5 -1 10 -13 13 -74 31 -74 21z"/>
<path d="M1491 753 c0 -4 4 -17 9 -28 8 -19 9 -19 9 2 1 12 -3 25 -9 28 -5 3
-10 3 -9 -2z"/>
<path d="M681 610 c0 -8 4 -22 9 -30 12 -18 12 -2 0 25 -6 13 -9 15 -9 5z"/>
<path d="M718 532 c13 -17 28 -35 34 -39 7 -3 2 8 -10 25 -13 17 -28 35 -34
39 -7 3 -2 -8 10 -25z"/>
<path d="M892 540 c0 -14 2 -19 5 -12 2 6 2 18 0 25 -3 6 -5 1 -5 -13z"/>
<path d="M914 465 c3 -11 8 -40 11 -64 3 -24 12 -55 21 -70 10 -18 13 -20 10
-6 -2 11 -10 45 -16 75 -7 30 -17 62 -22 70 -7 11 -8 10 -4 -5z"/>
<path d="M652 411 c1 -16 5 -28 9 -26 6 5 0 55 -7 55 -3 0 -3 -13 -2 -29z"/>
<path d="M1747 342 c-21 -64 -68 -162 -78 -162 -4 0 -14 -11 -23 -25 -16 -24
-16 -25 8 -25 19 0 24 4 19 16 -3 9 -1 19 4 23 21 12 70 108 82 159 18 72 10
82 -12 14z"/>
<path d="M830 334 c0 -3 7 -21 16 -39 11 -24 23 -34 45 -37 l30 -5 -35 35
c-20 19 -36 38 -36 43 0 5 -4 9 -10 9 -5 0 -10 -3 -10 -6z"/>
<path d="M982 295 c0 -16 2 -22 5 -12 2 9 2 23 0 30 -3 6 -5 -1 -5 -18z"/>
<path d="M1632 267 c-17 -47 -14 -59 4 -18 8 19 13 39 12 43 -2 5 -9 -6 -16
-25z"/>
<path d="M1877 261 c-42 -28 -41 -30 7 -14 25 9 43 19 40 24 -7 12 -14 11 -47
-10z"/>
<path d="M714 247 c-7 -18 -34 -24 -34 -7 0 18 -15 11 -26 -13 -6 -12 -19 -37
-29 -56 -13 -25 -15 -36 -7 -39 15 -5 16 -29 1 -34 -9 -3 -9 -9 0 -25 6 -12
11 -32 11 -45 l0 -23 168 -2 167 -3 -40 20 c-22 11 -46 19 -52 20 -7 0 -13 5
-13 12 0 7 -6 6 -17 -4 -10 -8 -29 -13 -43 -12 -14 2 -47 4 -73 5 -100 5 -48
24 85 32 51 3 32 16 -33 23 -30 3 -61 8 -69 11 -8 3 -25 5 -37 4 -11 -1 -24 2
-27 7 -6 10 63 22 130 22 24 0 44 5 44 10 0 6 -25 10 -55 10 -42 0 -57 4 -62
16 -6 15 -7 15 -19 -1 -12 -16 -16 -16 -30 -4 -15 12 -15 14 7 20 13 4 53 8
89 8 85 2 111 17 44 26 -27 4 -55 14 -61 23 -11 13 -13 13 -19 -1z m-54 -196
c0 -6 -4 -13 -10 -16 -5 -3 -10 1 -10 9 0 9 5 16 10 16 6 0 10 -4 10 -9z"/>
<path d="M1950 230 c-13 -8 -13 -10 2 -10 9 0 20 5 23 10 8 13 -5 13 -25 0z"/>
<path d="M1072 203 c-10 -4 -10 -8 -1 -19 16 -20 28 -17 26 6 -1 21 -3 22 -25
13z"/>
<path d="M1165 180 c3 -5 11 -10 16 -10 6 0 7 5 4 10 -3 6 -11 10 -16 10 -6 0
-7 -4 -4 -10z"/>
<path d="M1837 183 c-4 -3 -7 -11 -7 -17 0 -6 5 -5 12 2 6 6 9 14 7 17 -3 3
-9 2 -12 -2z"/>
<path d="M820 165 c7 -8 17 -15 22 -15 6 0 5 7 -2 15 -7 8 -17 15 -22 15 -6 0
-5 -7 2 -15z"/>
<path d="M1951 156 c2 -2 15 -9 29 -16 23 -12 24 -12 11 3 -7 10 -20 17 -29
17 -8 0 -13 -2 -11 -4z"/>
<path d="M1798 143 c7 -3 16 -2 19 1 4 3 -2 6 -13 5 -11 0 -14 -3 -6 -6z"/>
<path d="M1940 116 c0 -2 8 -10 18 -17 15 -13 16 -12 3 4 -13 16 -21 21 -21
13z"/>
<path d="M1550 50 c0 -11 80 -52 96 -48 9 2 -9 15 -40 29 -31 14 -56 23 -56
19z"/>
<path d="M1004 25 c0 -24 2 -25 61 -23 l60 1 -51 6 c-41 5 -51 9 -48 24 1 9
-3 17 -10 17 -7 0 -12 -11 -12 -25z"/>
</g>
</svg>
